<svg width="268" height="33" viewBox="0 0 268 33" fill="none" xmlns="http://www.w3.org/2000/svg">
<g clip-path="url(#clip0_2325_25639)">
<path d="M44.0002 18.7999H39.7002V15.8999L44.2002 15.7999L44.7002 11.3999H47.9002V15.7999H55.3002V18.7999H47.8002V25.4999C47.7002 26.5999 48.0002 27.5999 48.6002 28.4999C49.4002 29.1999 50.5002 29.5999 51.5002 29.3999C52.2002 29.3999 52.8002 29.3999 53.4002 29.1999C54.0002 29.0999 54.5002 28.8999 55.1002 28.6999L55.8002 31.4999C55.0002 31.7999 54.2002 31.9999 53.4002 32.0999C52.5002 32.2999 51.5002 32.3999 50.6002 32.3999C49.5002 32.3999 48.5002 32.2999 47.5002 31.8999C46.7002 31.5999 46.0002 31.0999 45.5002 30.4999C44.9002 29.8999 44.5002 29.0999 44.3002 28.2999C44.1002 27.3999 43.9002 26.3999 44.0002 25.3999V18.7999Z" fill="white"/>
<path d="M59 23.8998C59 22.6998 59.2 21.4998 59.7 20.2998C60.1 19.2998 60.8 18.3998 61.6 17.5998C62.4 16.8998 63.3 16.2998 64.3 15.8998C66.3 15.0998 68.6 15.0998 70.6 15.8998C71.5 16.2998 72.3 16.7998 73 17.4998C73.7 18.1998 74.2 18.9998 74.5 19.8998C74.9 21.1998 75.1 22.5998 74.9 23.9998C74.9 24.2998 74.8 24.4998 74.8 24.7998H62.9C63 26.0998 63.6 27.3998 64.7 28.1998C65.8 28.9998 67.1 29.3998 68.4 29.3998C69.2 29.3998 70 29.2998 70.7 28.9998C71.5 28.6998 72.2 28.3998 72.9 27.9998L74.2 30.3998C73.3 30.9998 72.3 31.3998 71.2 31.7998C70.1 32.1998 68.9 32.2998 67.8 32.2998C66.6 32.2998 65.4 32.0998 64.3 31.6998C63.3 31.2998 62.3 30.7998 61.5 29.9998C60.7 29.2998 60.1 28.2998 59.6 27.2998C59.2 26.3998 59 25.1998 59 23.8998ZM71.4 22.4998C71.5 21.3998 71.1 20.2998 70.4 19.4998C69.6 18.6998 68.5 18.2998 67.4 18.3998C66.9 18.3998 66.3 18.4998 65.8 18.6998C65.3 18.8998 64.8 19.0998 64.4 19.4998C63.5 20.2998 62.9 21.3998 62.8 22.5998L71.4 22.4998Z" fill="white"/>
<path d="M78.6001 23.8998C78.6001 22.6998 78.8001 21.3998 79.3001 20.2998C79.8001 19.2998 80.5001 18.3998 81.3001 17.5998C82.2001 16.8998 83.2001 16.2998 84.3001 15.8998C85.4001 15.4998 86.6001 15.2998 87.8001 15.2998C89.0001 15.2998 90.2001 15.4998 91.3001 15.9998C92.2001 16.3998 93.1001 16.8998 93.8001 17.5998L92.0001 19.9998C91.4001 19.4998 90.8001 19.0998 90.1001 18.7998C89.4001 18.4998 88.7001 18.3998 88.0001 18.3998C86.5001 18.2998 85.1001 18.8998 84.0001 19.8998C83.0001 20.9998 82.4001 22.3998 82.5001 23.8998C82.5001 24.6998 82.6001 25.3998 82.9001 26.0998C83.1001 26.6998 83.5001 27.2998 84.0001 27.7998C84.5001 28.2998 85.1001 28.6998 85.7001 28.8998C86.4001 29.1998 87.1001 29.2998 87.9001 29.2998C88.8001 29.2998 89.6001 29.0998 90.4001 28.6998C91.1001 28.3998 91.9001 27.8998 92.5001 27.3998L94.1001 29.8998C93.2001 30.6998 92.1001 31.2998 91.0001 31.6998C89.9001 32.0998 88.7001 32.2998 87.5001 32.2998C86.3001 32.2998 85.1001 32.0998 83.9001 31.6998C82.8001 31.3998 81.9001 30.7998 81.1001 29.9998C80.3001 29.2998 79.6001 28.2998 79.2001 27.2998C78.8001 26.3998 78.6001 25.1998 78.6001 23.8998Z" fill="white"/>
<path d="M98.1 8.7002H101.9V14.7002L101.7 18.2002C102.5 17.4002 103.3 16.8002 104.2 16.2002C105.2 15.6002 106.3 15.3002 107.5 15.4002C109.1 15.3002 110.6 15.9002 111.6 17.1002C112.6 18.5002 113 20.3002 112.9 22.0002V32.1002H109.1V22.5002C109.2 21.5002 108.9 20.5002 108.4 19.6002C107.8 18.9002 106.9 18.6002 106 18.7002C105.3 18.7002 104.5 18.9002 103.9 19.3002C103.1 19.8002 102.5 20.4002 101.8 21.0002V32.1002H98L98.1 8.7002Z" fill="white"/>
<path d="M118.9 15.8H122.1L122.4 19.5H122.5C123.2 18.3 124.3 17.2 125.5 16.5C126.7 15.8 128 15.5 129.4 15.5C130 15.5 130.5 15.5 131.1 15.7C131.6 15.8 132.1 16 132.5 16.2L131.7 19.4C131.2 19.2 130.8 19.1 130.3 19C129.8 18.9 129.3 18.9 128.8 18.9C127.6 18.9 126.5 19.3 125.6 19.9C124.4 20.7 123.4 21.9 122.8 23.2V32.2H119L118.9 15.8Z" fill="white"/>
<path d="M135.9 23.8998C135.9 22.6998 136.1 21.4998 136.6 20.2998C137 19.2998 137.7 18.3998 138.5 17.5998C139.3 16.8998 140.2 16.2998 141.2 15.8998C142.2 15.4998 143.2 15.2998 144.3 15.2998C145.4 15.2998 146.5 15.4998 147.5 15.8998C149.3 16.5998 150.7 18.0998 151.3 19.8998C151.6 20.8998 151.8 21.9998 151.8 22.9998C151.8 23.2998 151.8 23.6998 151.7 23.9998C151.6 24.2998 151.6 24.4998 151.6 24.7998H139.8C139.9 26.0998 140.5 27.3998 141.6 28.1998C142.7 28.9998 144 29.3998 145.3 29.3998C146.1 29.3998 146.9 29.2998 147.7 28.9998C148.5 28.6998 149.2 28.3998 149.9 27.9998L151.2 30.3998C150.3 30.9998 149.3 31.3998 148.3 31.7998C147.2 32.1998 146 32.2998 144.9 32.2998C143.7 32.2998 142.5 32.0998 141.4 31.6998C140.4 31.2998 139.4 30.7998 138.6 29.9998C137.8 29.2998 137.1 28.2998 136.7 27.2998C136.1 26.2998 135.9 25.0998 135.9 23.8998ZM148.3 22.4998C148.4 21.3998 148 20.2998 147.3 19.4998C146.5 18.6998 145.4 18.2998 144.3 18.3998C143.8 18.3998 143.2 18.4998 142.7 18.6998C142.2 18.8998 141.7 19.0998 141.3 19.4998C140.4 20.2998 139.8 21.3998 139.7 22.5998L148.3 22.4998Z" fill="white"/>
<path d="M154.4 15.7998H158.3L161.4 24.2998C161.7 25.0998 162 25.8998 162.2 26.6998C162.5 27.4998 162.7 28.2998 163 29.1998H163.1L163.9 26.6998C164.2 25.8998 164.4 25.0998 164.8 24.2998L167.9 15.7998H171.5L165.2 32.0998H160.9L154.4 15.7998Z" fill="white"/>
<path d="M175 15.8H185.9V32H182.1V18.8H175V15.8ZM183.7 13C183 13 182.3 12.8 181.8 12.3C181.3 11.8 181 11.1 181 10.4C181 9.7 181.3 9 181.8 8.5C182.9 7.5 184.6 7.5 185.7 8.5C186.2 9 186.5 9.7 186.5 10.4C186.5 11.1 186.3 11.8 185.7 12.3C185.1 12.7 184.4 13 183.7 13Z" fill="white"/>
<path d="M193.5 23.8998C193.5 22.6998 193.7 21.4998 194.2 20.2998C194.6 19.2998 195.3 18.3998 196.1 17.5998C196.9 16.8998 197.8 16.2998 198.8 15.8998C200.8 15.0998 203.1 15.0998 205.1 15.8998C206 16.2998 206.8 16.7998 207.5 17.4998C208.2 18.1998 208.7 18.9998 209 19.8998C209.3 20.8998 209.5 21.9998 209.5 22.9998C209.5 23.2998 209.5 23.6998 209.4 23.9998C209.4 24.2998 209.3 24.4998 209.3 24.7998H197.5C197.6 26.0998 198.2 27.3998 199.3 28.1998C200.4 28.9998 201.7 29.3998 203 29.3998C203.8 29.3998 204.6 29.2998 205.4 28.9998C206.2 28.6998 206.9 28.3998 207.6 27.9998L208.9 30.3998C208 30.9998 207 31.3998 206 31.7998C204.9 32.1998 203.7 32.2998 202.6 32.2998C201.4 32.2998 200.2 32.0998 199.1 31.6998C198.1 31.2998 197.1 30.7998 196.3 29.9998C195.5 29.2998 194.8 28.2998 194.4 27.2998C193.8 26.3998 193.5 25.0998 193.5 23.8998ZM205.9 22.4998C206 21.3998 205.6 20.2998 204.9 19.4998C204.1 18.6998 203.1 18.2998 202 18.3998C201.5 18.3998 200.9 18.4998 200.4 18.6998C199.9 18.8998 199.4 19.0998 199 19.4998C198.1 20.2998 197.5 21.3998 197.4 22.5998L205.9 22.4998Z" fill="white"/>
<path d="M210.8 15.7998H214.6L216.1 24.2998C216.2 25.0998 216.3 25.7998 216.5 26.5998C216.7 27.3998 216.7 28.1998 216.8 28.9998H216.9C217 28.1998 217.1 27.3998 217.3 26.5998C217.5 25.7998 217.6 25.0998 217.8 24.2998L219.4 17.3998H222.2L223.8 24.2998C224 25.0998 224.1 25.7998 224.3 26.5998C224.5 27.3998 224.6 28.1998 224.7 28.9998H224.8C224.9 28.1998 225 27.3998 225.2 26.5998C225.4 25.7998 225.4 25.0998 225.5 24.2998L226.9 15.8998H230.5L227.5 32.1998H223L221.6 25.3998C221.5 24.5998 221.3 23.8998 221.2 23.0998C221.1 22.2998 220.9 21.4998 220.8 20.6998H220.7C220.6 21.2998 220.5 21.9998 220.4 22.7998C220.3 23.5998 220.2 24.3998 220 25.4998L218.6 32.2998H214.2L210.8 15.7998Z" fill="white"/>
<path d="M232 23.8998C232 22.6998 232.2 21.4998 232.7 20.2998C233.1 19.2998 233.8 18.3998 234.6 17.5998C235.4 16.8998 236.3 16.2998 237.3 15.8998C238.3 15.4998 239.4 15.2998 240.4 15.2998C241.5 15.2998 242.6 15.4998 243.6 15.8998C244.5 16.2998 245.3 16.7998 246 17.4998C246.6 18.1998 247.1 18.9998 247.4 19.8998C247.7 20.8998 247.9 21.9998 247.9 22.9998C247.9 23.2998 247.9 23.6998 247.8 23.9998C247.7 24.2998 247.7 24.4998 247.7 24.7998H235.9C236 26.0998 236.6 27.3998 237.7 28.1998C238.8 28.9998 240.1 29.4998 241.4 29.3998C242.2 29.3998 243 29.2998 243.8 28.9998C244.6 28.6998 245.3 28.3998 246 27.9998L247.3 30.3998C246.4 30.9998 245.4 31.3998 244.4 31.7998C243.3 32.1998 242.1 32.2998 241 32.2998C239.8 32.2998 238.6 32.0998 237.5 31.6998C236.5 31.2998 235.5 30.7998 234.7 29.9998C233.9 29.2998 233.2 28.3998 232.8 27.2998C232.2 26.3998 231.9 25.1998 232 23.8998ZM244.3 22.4998C244.4 21.3998 244 20.2998 243.3 19.4998C242.5 18.6998 241.4 18.2998 240.4 18.3998C239.9 18.3998 239.3 18.4998 238.8 18.6998C238.3 18.8998 237.8 19.0998 237.4 19.4998C236.5 20.2998 235.9 21.3998 235.8 22.5998L244.3 22.4998Z" fill="white"/>
<path d="M253.4 15.8H256.5L256.8 19.5H256.9C257.6 18.3 258.7 17.2 259.9 16.5C261.1 15.8 262.4 15.5 263.8 15.5C264.4 15.5 264.9 15.5 265.5 15.7C266 15.8 266.5 16 266.9 16.2L266.1 19.4C265.6 19.2 265.2 19.1 264.7 19C264.2 18.9 263.7 18.8 263.2 18.8C262 18.8 260.9 19.2 260 19.8C258.8 20.6 257.8 21.8 257.2 23.1V32.1H253.3L253.4 15.8Z" fill="white"/>
<path d="M0 0H10.8C10.8 5.9 5.9 10.8 0 10.8V0Z" fill="#B41D1B"/>
<path d="M21.5998 0V10.8H10.7998C10.7998 4.9 15.5998 0 21.5998 0Z" fill="#FF7E6E"/>
<path d="M21.5998 10.7998H10.7998V32.3998H21.5998V10.7998Z" fill="#FC584E"/>
<path d="M32.4001 0H21.6001V10.8H32.4001V0Z" fill="#FFA090"/>
</g>
<defs>
<clipPath id="clip0_2325_25639">
<rect width="267.1" height="32.5" fill="white"/>
</clipPath>
</defs>
</svg>
